<svg xmlns="http://www.w3.org/2000/svg" width="20" height="20">
    <mask id="mask">
        <rect fill="white" width="100%" height="100%"/>
        <rect fill="black" x="1" y="0" width="4" height="6" rx="2" ry="2"/>
        <rect fill="black" x="15" y="0" width="4" height="6" rx="2" ry="2"/>
    </mask>
    <rect mask="url(#mask)" fill="none" stroke-width="4" stroke="white" x="0" y="4" width="20" height="16"/>
    <rect mask="url(#mask)" fill="white" stroke-width="2" stroke-linecap="round" stroke="white" rx="1" ry="1" x="0" y="2" width="20" height="4"/>
    <rect fill="white" rx="2" ry="2" x="1.5" y="0" width="3" height="5"/>
    <rect fill="white" rx="2" ry="2" x="15.5" y="0" width="3" height="5"/>

    <rect fill="white" x="7.125" y="8" width="2.25" height="2.25"/>
    <rect fill="white" x="10.625" y="8" width="2.25" height="2.25"/>
    <rect fill="white" x="14.125" y="8" width="2.25" height="2.25"/>

    <rect fill="white" x="3.625" y="11.5" width="2.25" height="2.25"/>
    <rect fill="white" x="7.125" y="11.5" width="2.25" height="2.25"/>
    <rect fill="white" x="10.625" y="11.5" width="2.25" height="2.25"/>
    <rect fill="white" x="14.125" y="11.5" width="2.25" height="2.25"/>

    <rect fill="white" x="3.625" y="15" width="2.25" height="2.25"/>
    <rect fill="white" x="7.125" y="15" width="2.25" height="2.25"/>
    <rect fill="white" x="10.625" y="15" width="2.25" height="2.25"/>
</svg>